<?xml version="1.0" encoding="UTF-8"?>
<svg id="Layer_1" xmlns="http://www.w3.org/2000/svg" version="1.1" viewBox="0 0 60.7 88.2">
  <!-- Generator: Adobe Illustrator 29.0.1, SVG Export Plug-In . SVG Version: 2.1.0 Build 192)  -->
  <path id="branch2" d="M51.6,45.4c.2-1.9.3-10.5,0-16,0-1.6-1.5-7-1-7.5,0,0-.8-.6-1.9-.6s-2.1.3-2.1.3c.6.5,1.1.9,1.1,1,.2,1,.8,12,.7,13.5-.2,2.6-.3,6.5-3.3,8.1-2.8,1-12.2,1.9-14.8,1.9,0,0,4.6.4,6.8.8,3.9.7,10.9.5,12,.7,3.5,0,2.3-.5,2.5-2.2Z"/>
  <path id="branch3" d="M38.7,46.5c5.5.3,6.2,2.1,7.5,3.3,1.9,2,3,12.6,2.4,15.5,0,.6-.3,1-.6,1.5,0,0-1.1,1.4,2,.8,1.8-.3,1.6-1.4,1.6-1.4.4-6.7.1-18.5,0-19.8s-.7-2.1-7-1.5-5.9,1.6-5.9,1.6Z"/>
  <path id="branch1" d="M34,45.1c-4.4,0-10.1-.2-11.9-.9,0,0-1,.2-.8,1.9s.7,1.5.7,1.5c2-.3,7.2-.3,11.8,0h1.2s17.2,1.2,16.6-.8-16-1.7-16-1.7h-1.6Z"/>
  <path id="disc3" d="M51.5,66.2c8.1,2.8,12.3,12.3,6.1,19.2-7.2,8-21.9-2.8-14.7-13.7,1.5-2.2,3.8-3.2,5-4.9,0,0,.5-.6,1.8-.7,1.4,0,1.8,0,1.8,0Z"/>
  <path id="disc2" d="M46.5,21.6c-1.4-1.1-3.6-2.9-4.6-4.6-10.4-18.3,21-25.3,18.7-3.6-1,9.1-8.9,7.4-10,8.5,0,0-1,.4-2.3.3-1.2,0-1.8-.6-1.8-.6Z"/>
  <path id="disc1" d="M22.3,47.8c-.2,2.1-1.7,7.9-8.2,9-22.8,3.6-14.9-31.2,3.1-20,3,1.9,4.5,5.4,5,7s.3,1.9.1,4Z"/>
</svg>