<?xml version="1.0" encoding="UTF-8"?>
<svg id="Layer_1" xmlns="http://www.w3.org/2000/svg" version="1.1" viewBox="0 0 183.6 158.1">
  <!-- Generator: Adobe Illustrator 29.0.1, SVG Export Plug-In . SVG Version: 2.1.0 Build 192)  -->
  <path id="branch1" d="M160.4,56c-.3-.3-.7-.6-1.1-.9-5,.7-20.7-.5-32.8-.1l-36.3-.2c-22.2-1.2-44.4-.6-66.7-.8-.1.3-.2.6-.3.8,0,0-1.2.6-2.2-1.9s1-2.9,1-2.9c0,.3.6.6.5,1,13.2.4,25.7-1.4,38.9-1.1,7.9.2,18.1,2.2,25.9,2.1.6,0,1.6,0,2.9-.2l36.3-.7c8.2.2,16.7-.5,24.9-.2,2.7,0,5.4,1.4,8,1.2.5,0,.9-.4,1.4-.8,0,0,2,.9,2,2.5s-2.3,2.2-2.3,2.2Z"/>
  <path id="branch2" d="M109.4,16.9c-.5,3.5-.7,7.1-.6,10.7,0,4.4.6,12.6,1.1,16.9.2,1.3.9,4.5,1.9,5.1.5.3,9.8,1.4,11.5,1.5,1.1,0,2.1.1,3.2.1,0,0-1.3,1.9-19.1,1.9s-17.2-1.3-17.2-1.3c4.1-.4,10.8-1.3,12-2,5.1-2.9,4.1-19.5,3.7-25.4-.3-3.2-.7-5.7-1.4-7.6,0,0-.8-3.4,2.2-3.4s2.7,3.4,2.7,3.4Z"/>
  <path id="branch3" d="M149.1,10c-13,.8-27.1-2.2-39.1,3.2-.2,1.2-.4,2.4-.6,3.6,0,0-1,2.7-3.4-2.4s.7-6.5.7-6.5c16.8-.9,36.4-2.3,41.6-.9.9-.2,1.7-.6,2.4-1.2,0,0,1.6-.2.8,2.4s-2.3,1.8-2.3,1.8Z"/>
  <path id="branch4" d="M80.9,7.9c1.8,1.2,13,.7,25.7,0,0,0,1.6.6,0,5.5s-2.2,3.4-2.2,3.4c-3.1-9-10.8-5.1-23-5.9,0,0-.8,0-1.4-1.2s.9-1.9.9-1.9Z"/>
  <path id="branch5" d="M112,135.9c0-.5-.1-.9-.2-1.4-.9-8.8-1-25.6-.6-37.7l-1.4-27.7c-.5-4.2,0-8.9,1.3-10.9,1.5-2.3,7.8-3.2,15.4-3.4,0,0-8.9-4.7-18.2-4.7s-18.2,4.5-18.2,4.5c3.9.2,7.7.5,11.6.8,3.4,1,4.5,6.8,4.2,12.1l.7,29.1c.7,8.2,1,17.6,1.2,24.7.1,4.4.7,9.2.1,13.3-.2,1.2-.5,2.3-.9,3.3,0,0-2.5,4.4,2.6,3.7s2.6-4.3,2.6-4.3c-.1-.5-.2-1-.3-1.6Z"/>
  <path id="branch6" d="M112.3,137.5c.4,1.5,1.2,2.8,2.8,3.7,3.3,1.9,15.1,3.5,19.2,3.8,5.3.4,19.4.9,24,0,.5,0,.9-.3,1.4-.7,0,0,1.2-1,1.2,1.9s-1.5,2.4-1.5,2.4c0-.2-.1-.5-.2-.7h-46.3s-3.5,0-3.5,0c0,0-1.3-3.5.4-7.8s2.6-2.7,2.6-2.7Z"/>
  <path id="branch7" d="M82.9,143.3c.2.5.4.8.5.8,1.9.5,13.2.1,15.6-.3,4.4-.7,6.8-2.8,8-5.7,0,0,1.3-.3,2.2,2.8s1,7.1,1,7.1h-3.2s-21.7,0-21.7,0c-.4,0-.8.3-1.1.5,0,0-1.2,1.2-2.3-2.3s1-3,1-3Z"/>
  <path id="branch8" d="M106.7,96.8c-.3-3-.6-5.8-.9-8.2-.7-4.7-5.2-6.9-9.5-7.5-2.6-.4-18.8.4-20.8,1.1-.3,0-.5.3-.7.5,0,0-2,2.7-2-2.6s1.9-3.2,1.9-3.2c.8.9,1.7,1.6,2.9,1.9,3.7.8,22.6-.1,25.5-1.8,1.5-.8,2.7-5,2.9-9.4,0,0,1.4,4.6,1.9,12.8s-1.1,16.3-1.1,16.3Z"/>
  <path id="branch9" d="M123.8,80.5c-.5-3.9-1.6-2.8-1.6-2.8-.1.3-.3.5-.4.7-.2.3-.4.4-.6.5-.8.2-6.8-1.4-7.8-2-2-1.1-3.1-4.3-3.6-7.8,0,0-1.4,2.1-1,11.3s2.5,16.3,2.5,16.3c.1-3.2.3-6,.5-8.3.2-2.7.3-5.8,3.5-6.4,3.1-.6,5.2-.1,6.8.8.2.1.4.3.7.4,0,0,1.6,1.1,1.1-2.8Z"/>
  <path id="disc8" d="M122.2,77.7c1.2-2.3,2.6-7.3,8.3-8.5,16.6-3.4,19.2,19.7,3.5,20.5-6.4.3-7.8-4.1-11.3-6.5l-.6-5.6Z"/>
  <path id="disc7" d="M74.7,82.7c-1.6,1.7-2.6,6.6-8.5,7.3-15.9,1.9-15.7-21.5-1-20.7,6,.4,7.2,4.9,9.5,7.6v5.8Z"/>
  <path id="disc6" d="M84.2,148.5c-2.3,1.7-3,7.1-10,7.4-14.9.7-15.9-22.4,0-20.9,5.8.6,7.8,6.1,8.7,8.2l1.3,5.3Z"/>
  <path id="disc5" d="M159.7,144.3c1.7-1.4,3.1-4.4,6.1-5.8,12-5.5,21.2,10.4,10.3,17.3-8.1,5.2-14.2.8-16.8-7.2l.3-4.4Z"/>
  <path id="disc4" d="M81.4,11c-.9.2-2.3,9-9.2,10-15.9,2.4-15.4-25,1.6-20.5,5.9,1.6,6.2,6.8,7.1,7.4l.5,3.1Z"/>
  <path id="disc3" d="M150.6,5.8c2.1-1.8,4-4.7,9.6-4.8,15.8-.3,11.9,20.2.8,20.8-8.8.4-11-11.5-12-11.8l1.5-4.2Z"/>
  <path id="disc2" d="M160.7,51.3c1.5-1.5,3.1-4.6,5.4-5.5,18.5-7.5,24.1,19.2,8.2,20.3-8,.6-9.5-6-13.9-10.1l.3-4.7Z"/>
  <path id="disc1" d="M23.1,54.8c-5.9,14-28.2,9.6-22.1-7,4-10.9,20.9-8.8,20.8,2.3l1.3,4.7Z"/>
</svg>