<?xml version="1.0" encoding="iso-8859-1"?>
<!-- Generator: Adobe Illustrator 29.0.1, SVG Export Plug-In . SVG Version: 9.03 Build 54978)  -->
<svg version="1.1" id="Layer_1" xmlns="http://www.w3.org/2000/svg" xmlns:xlink="http://www.w3.org/1999/xlink" x="0px" y="0px"
	 viewBox="0 0 128.486 168.967" style="enable-background:new 0 0 128.486 168.967;" xml:space="preserve">
<g id="tree">
	<path id="branch1" d="M65.985,146.135c0.042,0.175,0.196,0.318,0.434,0.451c0,0,1,0.278-2.176,0.278
		c-3.177,0-2.167-0.739-2.167-0.739c-0.093-3.285,0.348-9.687,0.317-16.037c0,0-1.077-32.169-1.372-44.955
		s-0.767-41.172-0.767-41.172c-0.062-5.419-0.267-10.859-0.269-15.716c0-1.619,1.08-3.977,0.881-4.866
		c-0.063-0.28-0.264-0.53-0.571-0.768c0,0-0.288-0.911,1.504-1.196c1.792-0.285,1.78,0.401,1.78,0.401
		c-0.315,0.202-0.527,0.416-0.583,0.647c-0.595,2.467-0.505,13.898-0.248,21.275c0,0,1.046,23.219,1.169,39.873s2,43.054,1.9,46.477
		S65.581,144.454,65.985,146.135"/>
	<path id="branch2" d="M42.764,63.339c0.083,0.718,0.135,1.235,0.309,1.41c0.661,0.664,15.658,1.909,16.498-4.424
		c0.657-4.955,0.75-10.647,0.684-16.363c0,0,3.601,10.455,3.295,21.449c-0.305,10.994-2.444,17.669-2.433,16.877
		c0.028-2.129-1.469-11.266-2.565-12.517c-1.241-1.417-12.814-2.519-14.86-1.813c-0.319,0.11-0.625,0.318-0.929,0.597
		c0,0-0.894-0.945-0.894-2.228S42.764,63.339,42.764,63.339z"/>
	<path id="branch4" d="M62.393,130.089c-0.035-7.195-0.676-14.324-3.386-16.773c-4.842-4.376-28.821-2.369-36.304-3.565
		c0,0-0.637-0.867-0.637-2.14c0-1.273,0.881-2.185,0.881-2.185c0.929,0.758,2.326,1.279,4.626,1.38
		c3.41,0.149,5.899-0.99,8.919-1.056c8.618-0.189,21.936,3.481,23.449-7.552c0.413-3.012,0.882-8.852,1.082-13.064
		c0,0,1.197,4.33,1.726,22.883S62.393,130.089,62.393,130.089z"/>
	<path id="branch5" d="M106.978,109.803c-9.44,2.962-35.388-4.427-40.017,7.415c-0.523,1.339-0.931,6.929-1.145,12.87
		c0,0-1.382-12.837-1.961-21.316s0-23.639,0-23.639c0.017,7.307,0.895,14.855,2.271,17.063c4.268,6.851,21.914,3.571,28.402,3.507
		c3.348-0.033,8.301,2.5,11.498,0.577c0,0,0.83-0.419,1.334,1.33C107.865,109.36,106.978,109.803,106.978,109.803z"/>
	<path id="branch3" d="M84.608,68.717c-2.569-1.887-15.496-1.38-18.138,1.01c-1.864,1.687-3.209,9.419-3.193,16.388
		c0,0-1.132-12.459-1.132-21.254s0-22.415,0-22.415c0.086,2.459,0.793,5.759,0.897,6.835c0.262,2.722,2.035,10.453,3.505,12.495
		c3.43,4.762,12.893,4.705,17.811,3.042c0,0,0.691,0.347,0.691,1.813S84.608,68.717,84.608,68.717z"/>
</g>
<g>
	<path id="disc2" d="M42.763,68.555c-2.271,2.077-4.507,8.106-12.134,7.211c-15.862-1.861-12.816-28.078,6.425-20.488
		c4.931,1.945,5.46,5.908,5.71,8.061L42.763,68.555z"/>
	<path id="disc4" d="M22.703,109.751c-2.79,7.115-8.855,13.062-16.625,8.492c-11.867-6.98-5.325-27.14,10.697-20.695
		c4.618,1.857,3.599,5.778,6.171,7.878L22.703,109.751z"/>
	<path id="disc5" d="M106.027,106.281c3.62-2.177,1.848-8.477,12.508-7.535c23.355,2.065-0.234,39.964-11.557,11.057
		L106.027,106.281z"/>
	<path id="disc3" d="M84.358,64.819c0.938-0.317,1.434-7.901,8.237-8.975c19.76-3.121,18.515,27.149-1.959,18.845
		c-4.185-1.697-4.034-4.508-6.028-5.972L84.358,64.819z"/>
	<path id="disc1_00000172399145917450976310000018324058088641815481_" d="M60.296,22.612c-2.149-1.666-9.457-2.785-10.29-10.306
		C49.218,5.208,51.981,1.522,59.004,0.19c11.004-2.087,16.084,13.592,9.72,19.283c-1.013,0.906-3.89,1.537-5.145,2.344
		L60.296,22.612z"/>
	<path id="disc6" d="M66.419,146.586c1.672,0.931,7.522,1.36,8.519,8.792c2.526,18.826-19.304,15.403-20.842,5.857
		c-1.248-7.745,0.971-12.064,7.98-15.109L66.419,146.586z"/>
</g>
</svg>
