<?xml version="1.0" encoding="iso-8859-1"?>
<!-- Generator: Adobe Illustrator 29.0.1, SVG Export Plug-In . SVG Version: 9.03 Build 54978)  -->
<svg version="1.1" id="Layer_1" xmlns="http://www.w3.org/2000/svg" xmlns:xlink="http://www.w3.org/1999/xlink" x="0px" y="0px"
	 viewBox="0 0 864 576" style="enable-background:new 0 0 864 576;" xml:space="preserve">
<path d="M0,61c10.16,0.196,20.373-0.248,30.541-0.041c6.76,0.137,18.748,4.766,21.025-4.893c1.015-4.307,1.816-18.012,1.468-22.603
	c-1.142-15.06-8.414-11.828-20.448-14.291c-4.443,7.251-7.835,14.325-17.856,9.599c-16.565-7.814,1.546-32.521,12.71-19.709
	c5.161,5.922,0.709,7.239,12.016,7.984c9.585,0.631,21.899-0.05,31.997,0.004c8.38,0.044,16.513-1.302,24.881-1.005
	c6.08-15.494,26.769-10.395,22.192,6.988c-3.095,11.755-19.411,7.866-21.136-3.095c-10.131,1.776-34.354-4.557-39.603,6.351
	c-3.091,6.423-3.455,29.907,3.935,33.491c11.022,5.345,34.106,0.507,46.668,2.286c3.676-13.639,21.672-11.165,21.692,3.434
	c0.014,9.79-9.726,13.958-17.04,7.961c-3.663-3.003-2.544-7.921-7.484-8.516c-8.364-1.006-27.289-0.62-35.929,0.186
	c-2.093,0.195-9.332,1.338-10.601,2.399c-3.31,2.767-2.629,17.455,1.007,19.937c1.153,0.787,7.89,2.106,8.857,1.429
	c0.647-0.453,0.689-4.957,2.554-6.947c2.706-2.888,10.165-4.508,13.813-2.714c10.99,5.404,5.605,23.855-7.701,21.711
	c-6.135-0.989-8.459-8.794-9.223-8.986c-1.954-0.492-7.752,0.127-8.841,2.037c-0.886,1.553-2.311,15.62-2.485,18.515
	c-0.615,10.235-0.392,24.8,1.077,34.904c0.951,6.543,5.39,8.747,11.524,9.476c4.006,0.476,34.851,0.58,36.405-0.373
	c1.883-1.155,1.667-5.922,7.253-7.742c16.422-5.349,21.527,21.278,3.234,21.308c-11.089,0.018-10.25-9.991-11.073-10.138
	c-3.851-0.687-7.523,1.164-10.929,1.139c-15.317-0.111-31.099,0.327-46.081-1.002c-4.985-0.442-10.084,0.675-14.985-0.814
	c-2.318,3.358-3.154,6.709-7.596,8.071c-18.876,5.79-20.821-20.373-3.313-19.407c8.49,0.468,8.891,7.808,10.14,8.112
	c3.651,0.887,17.634,0.446,19.796-3.082c5.197-8.479-0.94-44.907,0.471-56.394c0.047-5.465-8.767-5.319-13.391-5.609
	c-2.913-0.183-14.773-0.528-16.052,1.031c-1.876,2.287-0.787,5.894-5.915,8.086c-17.562,7.505-21.809-22.077-6.191-21.979
	c1.731,0.011,6.401,1.181,7.989,2.031c3.314,1.774,3.638,6.203,5.252,6.749c0.9,0.304,9.942,1.073,11.835,1.166
	c14.863,0.733,18.594,0.083,16.444-16.444c-0.833-6.405-3.753-5.83-9.531-6.47C28.993,63.536,14.449,64.103,0,64V61z"/>
<path d="M864,163c-8.962-0.615-17.672,0.824-26.495,2.087l-25.496-2.088c0.54,10.169-18.891,12.61-21.558,4.055
	c-3.607-11.566,6.516-18.85,16.82-13.825c3.413,1.665,4.58,6.617,5.395,6.814c4.204,1.018,18.723-0.399,20.818-5.059
	c1.784-19.218,2.146-38.697-0.693-57.765c-1.397-1.952-23.798-1.226-28.139-2.264c-2.865,7.755-6.878,12.462-15.924,10.802
	c-9.941-1.825-13.02-23.091,4.814-21.815c9.442,0.676,9.054,7.218,11.085,7.928c2.457,0.859,25.003,0.252,27.662-0.859
	c2.118-3.279,3.792-17.501,0.763-19.566c-1.038-0.708-17.734-2.346-20.513-2.487c-20.398-1.038-40.8,2.848-61.096-0.574
	c-5.055,7.219-14.403,14.419-21.451,5.12c-12.668-16.713,17.382-26.294,20.576-7.443l77.737-0.255
	c8.368-5.364,8.781-31.751,3.138-37.753c-2.102-2.236-15.887-3.931-18.836-3.116c-0.732,0.202-1.699,9.044-10.222,9.995
	c-19.296,2.153-17.355-24.625,0.035-23.859c7.97,0.351,9.308,9.774,10.227,9.977c1.334,0.294,9.241,1.037,10.85,1.033
	c7.774-0.02,16.179-0.809,23.984-1.005C852.985,20.939,858.396,19.275,864,20v4c-5.005,2.324-17.493,0.613-21.4,3.1
	c-5.522,3.513-5.976,30.071-2.31,34.622c3.669,4.556,18.177,4.53,23.711,4.278v3c-12.962,0.994-26.089-4.045-26.076,13.495
	c0.007,9.315,4.012,10.148,12.465,9.565C852.218,84.637,856.262,81.643,864,82v22c-7.011,3.24-14.159-8.455-15.656-8.897
	c-3.61-1.066-8.105,3.335-8.915,6.827c-2.254,9.721-2.44,35.333-1.418,45.559C839.664,164.025,851.625,157.892,864,159V163z"/>
<path d="M0,530c11.318-2.445,41.177,4.523,49.947-0.553c3.352-1.94,3.855-11.879,4.095-15.905
	c1.153-19.372,0.623-26.211-21.432-24.606c-3.635,14.43-23.083,13.435-22.676-2.456c0.408-15.916,18.053-14.178,22.728-1.434
	c3.656-0.95,7.835,0.83,10.945,0.856c1.993,0.016,3.829-0.956,5.854-0.949c15.682,0.057,31.362,0.057,47.043,0.052
	c3.461-0.654,2.908-6.138,7.444-7.555c20.629-6.446,23.36,24.789,5.821,22.355c-8.753-1.215-10.377-10.588-11.439-10.843
	c-3.482-0.838-22.258-0.353-26.866,0.003c-4.771,0.369-10.011,0.976-12.234,5.766c-2.031,4.375-1.769,24.885-0.033,29.574
	c1.279,3.454,12.906,6.207,16.427,6.573c3.839,0.399,32.779,0.885,34.223-0.036c0.414-0.264,2.182-5.865,5.782-7.711
	c12.206-6.258,23.112,12.312,11.881,19.871c-5.043,3.394-12.153,1.284-15.37-3.64c-1.249-1.912-0.719-5.182-3.626-5.374
	c-11.29,1.168-22.973-1.626-34.054-1.029c-2.717,0.146-11.556,1.271-13.414,2.586c-4.217,2.985-3.518,17.971,0.657,20.505
	c9.447,5.733,7.214-2.931,12.342-6.506c12.394-8.642,23.44,4.159,16.817,15.818c-2.672,4.704-10.096,4.702-14.602,2.88
	c-5.255-2.124-5.675-13.577-14.546-6.295C58.706,564.416,60.438,572.322,60,576h-5c0.083-2.987,0.365-13.9-2.625-14.875
	c-6.204,0.794-20.611-3.759-25.744-1.986c-2.029,0.701-2.396,6.359-4.668,8.325c-1.678,1.452-6.166,2.644-8.425,2.58
	c-14.915-0.428-14.347-26.701,4.735-22.808c7.042,1.437,6.161,7.893,8.359,8.633c1.831,0.617,16.353,1.375,18.911,1.166
	c2.642-0.215,7.367-0.78,8.258-3.734c1.328-4.402,2.263-14.713-1.809-17.792c-2.03-1.535-13.861-2.371-17.45-2.55
	C23.093,532.39,11.455,533.464,0,533V530z"/>
<path d="M837,576c-0.069-4.061,0.963-16.408-3.694-17.806c-5.514-1.654-19.633,0.197-26.264-1.151
	c-0.669,13.441-20.939,16.033-22.065,0.439c-0.76-10.522,7.544-14.432,16.768-10.727c3.859,1.55,5.413,7.177,5.875,7.307
	c1.662,0.467,25.173,0.056,26.396-0.548c4.508-2.226,2.973-18.601-0.007-20.022c-1.235-0.589-8.465-1.392-10.466-1.534
	c-19.666-1.393-41.135,0.816-61.083,0.084c-2.267-0.083-5.09-1.358-6.886-1.11c-0.635,0.088-1.287,7.892-8.125,9.006
	c-5.935,0.967-11.477-0.09-13.663-6.219c-6.162-17.277,19.951-20.766,21.789-4.663c13.307-0.388,26.663,0.309,39.968-0.016
	c2.364-0.058,4.55-1.003,6.917-1.083c7.119-0.238,21.749,1.371,27.593-0.407c9.329-2.838,7.878-32.9,2.464-37.568
	c-2.551-2.2-13.473-1.244-17.078-2.704c-10.844,27.346-37.611-4.411-16.154-12.499c7.402-2.79,12.949,2.756,15.386,9.259L864,484v3
	c-4.491,2.379-18.184,0.528-21.059,3.441c-3.982,4.035-3.63,26.538-1.718,31.835c2.07,5.737,17.492,5.953,22.777,5.723v4
	c-4.535,0.338-20.328-1.387-22.515,2.985c-1.29,2.579-0.848,18.33,2.188,19.052c1.005,0.239,7.598,0.154,8.168-0.2
	c1.092-0.679,4.058-11.826,12.159-8.837v22c-2.69-0.725-5.55-0.95-7.966-2.535c-4.656-3.054-2.092-8.72-10.344-6.266
	c-5.343,1.589-4.178,13.484-3.69,17.801H837z"/>
<path d="M462,0c1.62,4.216,0.36,11.476,3.906,14.594c4.921,4.326,17.23,1.132,23.553,3.447c8.245-0.837,18.065,0.966,26.074,0.037
	c2.072-0.24,2.347-3.441,5.2-4.849c17.456-8.616,22.671,19.195,6.59,19.447c-9.301,0.145-9.614-10.397-10.98-10.721
	c-5.088-1.207-21.362,0.077-27.882,0.088c-2.371,0.004-4.531-1.106-6.913-1.08c-2.487,0.027-11.987,1.187-13.913,2.171
	c-5.372,2.747-5.718,20.039-4.652,25.385c0.584,2.929,2.756,2.071,4.538,3.462c5.841,4.562,5.728,18.989-2.23,20.802
	c-11.693,2.663-17.853-10.394-11.773-18.765c1.913-2.633,6.329-2.809,6.548-3.627c0.704-2.629-0.519-18.335-1.117-21.836
	c-0.955-5.587-5.735-6.622-10.552-7.448c-5.402-0.926-25.202-2.227-29.74-1.153c-1.03,0.244-1.368,7.395-8.389,8.824
	c-17.23,3.508-20.047-21.277-3.732-21.82c9.915-0.33,10.292,9.355,13.962,10.047c9.622,1.814,24.429-2.674,34.793-1.216
	C461.659,12.785,457.532,5.445,460,0H462z"/>
<path d="M864,206v18c-8.812,2.04-3.899,8.294-3.917,14.5c-0.016,5.595-4.454,15.23,3.917,17.5v7
	c-9.792,4.33-3.871,18.213-7.023,26.462L864,293v16c-9.707,6.239-22.463,1.075-18.227-11.735c1.577-4.768,6.259-5.699,7.187-8.805
	c1.249-4.181,1.873-19.929-0.935-22.986c-4.483-4.88-31.958-1.353-39.402-2.534c-2.589,9.244-11.209,12.478-18.172,5.108
	c-11.469-12.14,8.301-25.596,16.426-13.413c0.882,1.322,0.767,4.155,1.728,4.428c2.613,0.742,6.95-0.996,9.852-1.105
	c7.268-0.274,24.275,1.748,29.535-2.465c5.325-4.265,2.075-22.22,3.064-28.92C836.126,221.677,845.055,198.46,864,206z"/>
<path d="M228,576c-0.633-5.044,0.242-14.255-4.715-16.785c-1.545-0.788-14.752-2.781-15.285-2.222
	c-0.748,0.783,1.387,8.912-7.726,10.774c-18.913,3.865-18.776-25.322-0.008-21.545c6.283,1.264,6.761,7.092,8.363,7.649
	c2.548,0.886,15.737-0.064,17.478-2.264c1.626-2.055,2.675-19.388,1.956-21.998c-0.267-0.969-3.104-0.846-4.428-1.732
	c-7.868-5.264-6.088-16.817,2.372-20.386c12.655-5.339,22.155,13.042,9.913,20.929c-1.375,0.886-4.687,1.098-4.97,2.232
	c-0.557,2.24,1.481,19.177,2.998,20.897c2.645,2.999,16.639,4.206,20.559,3.458c4.056-0.775,6.142-12.533,16.447-6.461
	c13.524,7.97,2.49,27.715-10.473,18.471c-3.648-2.601-3.032-8.163-5.107-8.887c-2.624-0.916-16.374,1.271-18.714,2.784
	c-2.46,1.591-2.932,12.077-2.661,15.084H228z"/>
<path d="M0,376c6.266-0.103,35.36,4.3,38.519,1.019c0.825-0.857,1.035-2.807,2.047-3.953c6.293-7.132,22.543-4.973,22.517,6.436
	c-0.037,16.691-20.661,15.93-25.748,2.455L0,382V376z"/>
<path d="M370,576c0.684-3.609,1.941-10.09,0.054-13.345c-0.692-1.194-2.8-0.492-3.983-1.189c-10.026-5.91-7.653-25.879,7.748-21.777
	c8.448,2.25,11.451,11.011,6.647,18.276c-1.826,2.761-5.876,3.554-6.455,4.795c-1.646,3.524,0.736,9.38-0.01,13.24H370z"/>
<path d="M563,576h-4c-0.617-3.375,0.844-24.081-0.042-24.96c-0.271-0.269-4.451,0.246-6.988-2.51
	c-6.205-6.739-1.802-18.644,7.533-18.624c9.575,0.021,15.225,11.581,8.521,18.618c-1.657,1.739-5.269,2.327-5.867,4.135
	C560.153,558.725,564.121,569.386,563,576z"/>
<path d="M305,0c-2.222,10.404,3.579,7.609,7.018,11.763c5.08,6.138,2.045,19.657-6.581,20.206
	c-10.965,0.697-15.51-14.775-7.413-21.461c1.03-0.851,3.578-1.265,3.823-1.657C302.781,7.355,301.026,2.18,303,0H305z"/>
<path d="M624,0c-2.175,7.407-17.464,9.148-18,0H624z"/>
<path d="M419.154,249.842c4.274,2.722,58.251-3.269,67.323-0.865c3.724-0.709,4.458-5.93,12.026-6.057
	c15.843-0.267,11.903,20.232,0.84,20.788c-8.836,0.444-10.998-11.518-11.998-11.756c-12.966,0.842-27.08-2.178-39.145,3.248
	c-0.961,4.787-1.317,9.433-1.238,14.345c0.071,4.372,0.587,12.614,1.134,16.857c0.165,1.281,0.9,4.52,1.86,5.14
	c0.487,0.315,9.804,1.393,11.501,1.499c9.1,0.568,18.87-0.349,28.083-0.082c2.67,0.077,5.382,1.379,7.961,1.153
	c1.901-0.166,3.751-5.14,6.754-6.355c18.521-7.491,24.066,19.154,8.23,20.302c-8.683,0.629-9.742-7.063-14.982-11.063
	c-8.132,1.102-44.313-2.712-48.226,3.282c-2.341,3.585-2.105,16.094,2.327,18.617c1.068,0.608,7.068,2.161,7.825,1.97
	c1.654-0.417,1.989-8.159,9.304-9.642c16.57-3.36,19.225,19.684,3.504,20.546c-9.547,0.524-8.078-9.758-18.743-7.765
	c-3.22,0.602-3.303,3.773-3.542,6.449c-1.007,11.251-1.11,34.913,0.05,46.044c0.297,2.854,0.66,5.208,3.261,6.739
	c3.29,1.937,15.061,3.466,19.247,3.753c5.271,0.362,19.411,0.886,23.998,0.018c2.421-0.458,3.683-4.755,7.488-6.506
	c11.973-5.51,21.199,10.369,10.335,17.33c-8.385,5.373-14.527,0.542-16.99-7.878l-73.845,0.042
	c-3.266,0.616-3.103,7.562-11.068,7.931c-14.855,0.689-15.856-22.425-0.02-20.91c7.103,0.679,8.562,8.862,9.216,9.042
	c1.856,0.509,13.19,0.111,15.636-0.299c11.459-1.92,9.028-13.011,8.781-22.302c-0.255-9.585-0.698-23.652-2.096-32.904
	c-0.712-4.712-5.199-6.869-9.532-7.465c-2.553-0.352-18.76,0.411-20.756,1.068c-2.1,0.691-2.509,7.03-9.254,7.819
	c-15.893,1.86-15.735-21.517-1.04-20.655c7.991,0.469,7.416,8.364,12.351,9.464c3.67,0.818,22.566-0.129,25.548-1.775
	c3.384-1.868,4.873-19.721-1.286-21.488c-26.037-2.239-52.181-1.343-78.312-1.566c-5.371,15.009-28.635,10.741-22.397-6.197
	c4.123-11.195,21.811-8.713,20.736,3.238c13.225,0.357,26.29-1.348,39.537-1.039c7.912,0.184,18.133,2.153,25.912,2.079
	c2.43-0.023,13.287-1.226,14.932-2.152c5.145-2.896,4.112-19.539,3.651-25.422c-1.453-18.528-9.554-12.596-24.382-13.511
	c-0.9,0.215-2.317,8.98-9.228,10.009c-15.925,2.37-15.44-25.021,1.599-20.495C417.936,244.036,418.252,249.268,419.154,249.842z"/>
<path d="M229.042,60.04c-0.686,0.686-0.306,17.316,0.021,19.397c0.6,3.814,3.934,5.955,7.501,6.499
	c1.502,0.229,14.185,0.871,15,0.739c2.027-0.328,1.977-9.001,11.854-7.629c5.388,0.749,9.354,5.123,9.65,10.429
	c0.9,16.126-19.011,14.299-20.643,0.468c-3.805-0.645-15.96,0.636-18.957,3.026c-5.034,4.014-0.787,20.097-3.51,26.49
	c1.952,13.202-3.544,44.643,2.835,55.248c3.755,6.243,8,2.881,13.743,3.229c4.679,0.283,22.673,2.551,25.5,0.601
	c3.016-2.08,0.94-8.341,11.442-7.556c15.316,1.144,15.352,24.525-2.753,20.786c-6.769-1.398-7.041-8.17-10.221-8.77
	c-4.711-0.889-33.762,0.598-37.072,2.936c-3.363,2.376-4.235,21.367-3.414,25.549c0.941,4.793,10.699,4.73,8.929,15.957
	c-2.22,14.078-30.854,9.908-21.819-7.809c2.06-4.04,8.316-5.163,8.876-8.125c0.653-3.454-0.2-24.213-2.241-26.267
	c-2.394-2.409-32.23-0.925-38.153-2.3c-2.407,13.477-22.257,9.089-21.674-3.423c0.413-8.857,11.283-13.154,18.04-7.989
	c2.862,2.188,2.237,4.93,3.512,6.487c1.345,1.642,21.227,1.206,24.882,0.861c4.123-0.389,10.776-1.182,13.051-4.949
	c2.999-4.965,1.455-28.043,1.536-35.464c0.148-13.474,1.532-26.007-1.088-39.83c-0.861-4.544-0.79-6.731-5.643-8.357
	c-1.98-0.663-12.484-2.052-13.223-1.268c-0.694,0.737,1.635,6.591-5.007,9.49c-18.29,7.985-23.022-23.531-3.558-20.425
	c6.877,1.098,8.538,7.798,9.224,7.969c2.376,0.595,16.493-1.276,17.821-3.054c1.619-2.168,2.239-19.472,1.558-22.319
	c-0.186-0.776-8.854-3.099-9.097-12.207c-0.511-19.102,30.635-11.374,20.619,7.607C233.855,61.2,229.691,59.391,229.042,60.04z"/>
<path d="M560.691,81.682c-1.267,1.133-5.45,1.836-5.728,2.991c-0.794,3.29-0.369,22.514,0.046,26.818
	c0.262,2.722,2.035,10.453,3.505,12.495c3.43,4.762,12.893,4.705,17.811,3.042c0.938-0.317,1.434-7.901,8.237-8.975
	c19.76-3.121,18.515,27.149-1.959,18.845c-4.185-1.697-4.034-4.508-6.028-5.972c-2.569-1.887-15.496-1.38-18.138,1.01
	c-3.819,3.455-3.031,28.154-0.343,32.47c4.268,6.851,21.914,3.571,28.402,3.507c3.348-0.033,8.301,2.5,11.498,0.577
	c3.62-2.177,1.848-8.477,12.508-7.535c23.355,2.065-0.234,39.964-11.557,11.057c-9.44,2.962-35.388-4.427-40.017,7.415
	c-1.135,2.904-1.725,25.797-0.976,28.917c0.336,1.402,7.814,0.75,8.953,9.243c2.526,18.826-19.304,15.403-20.842,5.857
	c-1.248-7.745,0.971-12.064,7.98-15.109c-0.198-7.007,2.033-28.2-3.069-32.81c-4.842-4.376-28.821-2.369-36.304-3.565
	c-2.79,7.115-8.855,13.062-16.625,8.492c-11.867-6.98-5.325-27.14,10.697-20.695c6.285,2.528,2.129,8.879,10.797,9.258
	c3.41,0.149,5.899-0.99,8.919-1.056c8.618-0.189,21.936,3.481,23.449-7.552c0.519-3.785,1.126-12.034,1.177-15.91
	c0.028-2.129-1.469-11.266-2.565-12.517c-1.241-1.417-12.814-2.519-14.86-1.813c-2.698,0.931-4.413,8.823-13.063,7.808
	c-15.862-1.861-12.816-28.078,6.425-20.488c6.575,2.594,5.324,8.773,6.019,9.471c0.661,0.664,15.658,1.909,16.498-4.424
	c1.28-9.653,0.418-22.099,0.415-32.079c0-1.619,1.08-3.977,0.881-4.866c-0.501-2.244-9.909-2.478-10.862-11.074
	c-0.786-7.099,1.976-10.785,8.999-12.117C561.974,60.312,567.055,75.991,560.691,81.682z"/>
<path d="M621.112,302.107c-1.37,1.554,0.159,17.174,2.041,20.24c3.409,5.552,15.553,5.747,21.351,4.656
	c3.401-0.64,2.541-4.781,5.733-6.268c6.533-3.043,15.37,0.011,17.288,7.23c4.501,16.94-20.642,19.421-22.536,3.024
	c-5.528,2.594-18.094-1.542-21.253,5.245c-2.365,5.08-0.321,23.568-1.776,30.306c2.871,13.084-0.428,27.927,1.042,40.958
	c0.604,5.353,2.082,7.637,7.591,8.409c9.791,1.371,22.667-0.37,32.917,1.1c3.529-0.674,4.938-9.334,13.956-9.049
	c20.928,0.661,3.323,38.659-11.082,11.978c-8.662,1.182-34.7-2.407-40.934,3.01c-3.959,3.44-3.551,23.114-2.423,28.528
	c0.716,3.437,9.446,4.157,9.051,13.001c-0.699,15.668-29.059,10.169-17.309-7.21c1.305-1.931,4.701-3.508,4.851-4.712
	c0.414-3.3-0.205-20.221-0.706-23.968c-0.216-1.617-1.38-5.482-2.427-6.573c-3.298-3.441-28.097-2.671-33.991-3.018
	c-3.034,0.572-4.088,7.886-10.476,9.551c-15.274,3.981-19.654-25.381,0.253-21.314c7.094,1.449,7.708,8.656,8.337,8.829
	c3.559,0.982,9.19-0.979,12.849-1.103c15.813-0.536,24.102,5.434,25.584-14.416c1.073-14.375-0.424-34.324-1.084-49.002
	c-0.735-16.349,3.575-23.553-18.3-21.587c-1.737,0.412-0.908,10.719-11.037,10.004c-11.975-0.846-14.994-19.942-1.004-20.919
	c7.873-0.55,9.456,5.966,12.071,6.77c3.521,1.083,13.745,1.306,16.372-1.248c2.175-2.115,3.389-17.427,2.699-20.878
	c-0.977-4.887-8.855-3.626-8.851-12.183c0.006-13.926,21.298-14.081,20.153,1.985C629.489,301.52,622.349,300.704,621.112,302.107z"
	/>
<path d="M181.846,368.158c-1.776-1.133-15.149,0.278-17.867,1.321c-6.43,2.468-2.933,12.248-2.98,17.021
	c-0.052,5.26-3.311,13.86,1.908,18.093c6.301,5.11,29.128,0.642,37.601,1.415c3.173-0.611,5.42-9.354,14.918-8.938
	c17.954,0.787,8.523,32.236-9.366,18.37c-2.643-2.049-3.157-5.381-4.022-5.978c-1.26-0.869-27.074-0.854-30.54-0.466
	c-7.382,0.826-9.762,3.236-10.483,10.517c-0.393,3.965-0.791,21.809-0.057,24.821c0.216,0.887,10.976,4.404,10.029,14.07
	c-1.152,11.77-20.165,11.65-21.049-0.919c-0.685-9.741,7.393-10.441,8.071-13.978c0.705-3.676,0.289-14.774-0.018-18.999
	c-0.208-2.865-0.946-9.817-2.4-11.6c-5.621-6.898-29.612-1.977-37.972-2.972c-2.144,9.323-15.268,10.52-20.078,3.022
	c-9.753-15.202,18.846-24.335,21.07-5.897c5.87-0.411,32.47,0.941,35.446-2.769c3.445-4.295,5.62-30.177,1.724-34.072
	c-0.787-0.787-5.878-1.884-7.384-2.118c-1.131-0.176-8.517-0.839-8.961-0.768c-1.847,0.296-3.616,10.12-13.86,8.628
	c-10.458-1.523-11.1-20.643,2.036-20.875c8.479-0.15,9.507,7.876,12.057,8.748c3.136,1.073,12.796,0.484,15.217-2.45
	c5.342-6.471,2.175-28.19,3.163-36.73c-0.292-1.216-9.585-1.642-10.116-11.129c-0.886-15.839,20.4-15.933,21.997-1.916
	c1.23,10.803-8.163,9.814-8.932,13.887c-0.914,4.835-0.649,26.623-0.015,32.023c1.007,8.57,12.924,7.732,19.518,6.479
	c3.623-0.689,2.755-6.831,11.983-7.061c19.652-0.49,9.709,27.573-6.844,16.928C182.799,372.038,182.283,368.437,181.846,368.158z"/>
<path d="M819.866,377.854c0.326-0.292,0.206-1.952,0.718-2.719c7.629-11.413,28.601-6.033,23.964,8.921
	c-2.394,7.721-16.577,9.22-22.072,3.968c-1.636-1.564-2.035-4.203-2.96-5.04c-3.684-3.332-36.837,0.719-44,0.032
	c-3.037,1.062-9.997,0.653-11.986,3.014c-3.95,4.69-1.746,25.847-1.574,32.306c16.646,5.206,11.529,26.318-5.4,23.602
	c-8.347-1.339-9.038-13.349-4.589-19.202c1.637-2.154,5.431-2.046,6.038-5.229c0.823-4.312,0.26-29.489-2.261-32.259
	c-3.147-3.457-18.039-2.075-23.243-3.257c-2.72,0.207-2.689,3.277-4.063,4.949c-8.854,10.768-24.147,3.767-21.409-10.417
	c1.555-8.053,17.573-7.828,22.426-2.477c1.572,1.734,0.949,4.377,4.042,4.959c4.278,0.805,19.305-0.098,21.957-4.05
	c1.185-1.767,2.409-12.563,2.588-15.412c0.415-6.624,0.415-19.552-1.029-25.829c-0.191-0.829-5.869-2.565-7.334-7.889
	c-5.363-19.486,24.155-20.677,20.089-0.552c-1.534,7.592-9.586,7.172-9.808,10.215c0.993,8.348,1.946,16.684,3.032,25.02
	c0.949,7.283-1.823,13.387,7.774,16.226c4.654,1.377,15.523,2.03,20.744,2.256C794.991,379.141,818.727,378.873,819.866,377.854z"/>
<path d="M369.159,93.155c-1.156,1.825-0.203,39.266,1.085,43.101c0.48,1.428,1.614,2.376,2.78,3.22l33.435,2.565
	c5.567-0.979,14.894,1.186,19.871-0.002c1.108-0.265,1.892-5.186,4.289-6.921c10.948-7.923,27.667,6.607,17.425,16.425
	c-7.781,7.459-18.856,3.369-21.714-6.583c-15.129,1.385-33.085-1.719-47.853,0.017c-3.271,0.385-6.322,2.232-7.708,5.292
	c-2.032,4.488-2.728,26.243-1.775,31.237c0.588,3.082,4.592,3.217,6.363,5.74c12.971,18.479-18.831,27.234-19.398,8.218
	c-0.298-9.993,6.126-8.925,9.783-12.715c2.757-2.857,1.193-30.497-1.69-34.302c-0.771-1.017-1.942-1.448-3.06-1.94
	c-2.829-1.245-22.143-3.341-24.03-2.042c-1.189,0.818-1.162,4.408-5.265,6.733c-20.004,11.335-24.99-26.792-0.747-18.649
	c5.613,1.885,4.144,6.975,5.229,8.269c1.396,1.664,24.942,0.364,26.831-1.308c4.002-3.541,0.999-38.734,2.053-45.901
	c-14.643-3.116-12.572-27.717,4.195-23.36c7.362,1.913,10.205,14.145,5.305,19.81C373.026,91.839,369.326,92.892,369.159,93.155z"/>
<path d="M728.842,213.837c1.873-1.174,0.957-8.738,10.767-9.773c21.533-2.271,12.578,28.822-2.983,20.807
	c-2.636-1.358-6.284-7.485-7.212-7.704c-6.256,1.763-23.57-0.133-27.888,4.859c-2.851,3.296-1.927,24.838-2.587,30.407
	c12.138,1.978,14.038,21.3-0.441,21.646c-12.537,0.299-16.575-12.485-7.004-20.084c1.123-0.892,3.428-1.066,4.044-1.957
	c1.549-2.241-0.689-28.537-3.043-31.031c-2.437-2.583-26.073-4.958-29.829-4.049c-0.465,0.113-2.411,5.069-6.141,7.068
	c-11.317,6.064-18.119-0.515-16.456-12.461c1.397-10.031,15.699-9.662,20.36-2.491c0.886,1.363,1.077,4.699,2.227,4.975
	c3.973,0.953,28.837-0.646,30.863-4.03c-0.041-13.382,2.955-28.188,1.362-41.42c-0.895-7.436-9.671-6.916-8.944-16.089
	c1.016-12.813,19.945-12.83,20.496,1.353c0.378,9.741-7.962,9.091-8.485,12.666c-0.28,1.916,1.025,4.611,1.096,6.931
	c0.248,7.996-1.667,30.741,1.721,36.277c1.678,2.741,8.512,3.811,11.857,4.143C714.891,214.104,727.961,214.389,728.842,213.837z"/>
<path d="M309.159,391.154c-1.468,2.315,0.519,26.73,0.831,31.356c0.67,9.944-3.428,16.845,9.621,18.379
	c6.915,0.813,14.085-0.921,20.95,0.827c2.257-2.181,1.834-5.046,3.892-7.765c8.435-11.145,26.137,3.762,16.603,14.602
	c-5.938,6.751-16.786,3.571-19.719-4.592c-5.798,1.421-25.488-0.652-28.404,3.471c-2.147,3.035-3.738,27.834-2.993,32.001
	c12.951,1.733,12.456,23.08-1.447,22.652c-9.275-0.285-13.738-12.061-7.95-19.043c2.178-2.629,5.901-2.55,6.463-5.538
	c-0.643-6.288,0.225-25.187-3.523-29.485c-3.78-4.335-23.974-3.898-29.914-4.079c-0.936,10.159-14.852,12.021-20.99,4.983
	c-12.875-14.766,17.019-29.218,21.079-7.877c9.159-1.21,30.413,3.291,31.341-9.548l1.042-39.827
	c-0.371-1.556-10.956-2.375-9.991-12.051c1.546-15.504,25.692-13.946,21.517,3.454C316.033,389.459,309.892,389.999,309.159,391.154
	z"/>
<path d="M523.869,491.129c-3.689-2.426-36.52,2.341-43.355,0.885c-7.557,0.757-9.51,3.068-10.403,10.597
	c-0.317,2.674-0.697,14.879-0.174,16.779c0.204,0.743,4.586,1.086,6.539,3.636c7.995,10.438-3.91,25.962-15.506,15.504
	c-7.792-7.027-2.193-16.447,5.965-20.166c-2.003-5.504,0.69-20.117-2.926-23.872c-4.058-4.212-22.534-3.269-28.55-3.451
	c-3.007-0.091-8.913-2.568-10.977-0.055c-1.808,2.201-0.294,5.421-5.766,7.221c-24.905,8.195-19.72-29.403,0.654-19.078
	c3.729,1.89,4.497,6.651,5.593,7.408c2.622,1.811,35.902,0.783,39.601-2.473c1.435-1.263,2.243-10.731,2.426-13.574
	c0.183-2.841,0.606-12.87,0.07-14.867c-0.25-0.929-11.889-3.251-11.121-14.108c0.869-12.286,24.968-14.223,21.994,4.923
	c-1.181,7.602-8.331,7.838-8.937,11.058c-0.929,4.934,0.532,22.407,3.952,26.056c2.701,2.882,10.175,3.164,14.562,3.438
	c4.453,0.278,34.912,0.482,36.479-0.501c1.631-1.023,1.883-3.916,5.982-5.01c21.576-5.758,18.286,26.987-0.241,18.29
	C524.985,497.542,524.429,491.498,523.869,491.129z"/>
<path d="M78.111,224.107c-1.142,1.299,0.47,22.552,1.322,25.959c1.231,4.92,6.745,5.926,11.323,6.677
	c5.467,0.897,38.454,2.44,41.238,0.752c2.942-1.784,2.237-6.701,10.256-6.248c16.259,0.919,14.313,23.824-4.54,19.536
	c-6.145-1.398-5.431-8.695-6.285-8.841c-8.838,1.771-45.202-2.537-50.756,0.981c-4.406,2.791-1.784,19.245-3.715,24.547
	c0.664,3.836,11.566,4.374,10.005,14.955c-2.056,13.936-30.78,9.274-19.811-8.776c1.758-2.893,6.762-4.781,6.892-5.316
	c0.526-2.159,0.306-17.074-0.107-19.77c-0.581-3.789-3.218-7.7-7.418-7.582c-6.362,1.193-30.235-3.42-34.033,0.003
	c-2.312,2.084-2.548,8.208-8.884,7.976c-13.114-0.481-15.263-21.558-0.11-22.048c8.905-0.288,9.134,8.879,10.119,9.15
	c2.408,0.663,12.408-0.014,15.93-0.018c2.126-0.003,4.017-1.013,5.96-1.045c5.854-0.097,15.044,4.546,18.042-3.959
	c3.041-8.629-0.23-17.597,0.521-26.43c-8.675-1.944-10.774-7.328-8.848-15.899c2.501-11.133,26.195-6.245,21.334,9.343
	C84.876,223.418,78.741,223.391,78.111,224.107z"/>
<path d="M621.325,68.682c-5.203-6.168-2.225-16.504,6.441-17.495c10.274-1.175,11.675,8.921,13.863,9.684
	c1.558,0.544,16.474,0.476,18.912,0.174c8.934-1.106,5.254-7.413,5.37-12.548c0.067-2.964,1.704-5.963,1.123-8.991
	c-0.475-2.473-4.876-3.74-5.781-7.252c-1.129-4.385-0.075-13.215,5.271-14.225c9.23-1.744,18.534,3.565,14.542,13.544
	c-2.115,5.286-7.044,4.64-9.081,6.911c-2.329,2.597,0.218,29.812,0.006,36.004c-0.087,2.525-2.13,6.255-0.529,8.551
	c0.633,0.908,2.951,1.033,4.042,1.954c19.954,16.834-11.777,29.898-16.058,13.019c-2.574-10.146,6.773-12.627,7.536-16.531
	c0.574-2.937,0.579-13.192-2.027-14.939c-2.502-1.678-20.504-3.401-23.328-2.415c-1.837,0.642-2.941,8.593-10.143,8.934
	C628.433,73.206,623.248,70.962,621.325,68.682z"/>
<path d="M678.131,504.132c-2.048,3.119,3.465,35.898,0.141,42.434c7.102,3.482,12.523,7.89,10.509,16.723
	c-2.381,10.448-27.133,9.642-21.01-9.018c1.578-4.811,6.551-5.466,7.208-8.788c0.559-2.826,0.28-12.041-2.008-13.955
	c-2.444-2.044-20.365-3.439-23.343-2.399c-1.156,0.403-2.759,5.35-5.681,7.319c-13.86,9.343-25.539-10.993-11.322-18.32
	c10.623-5.474,12.99,6.182,16.865,6.882c3.675,0.664,14.519,1.516,17.955,0.932c3.415-0.58,6.152-2.908,6.606-6.391
	c0.34-2.61,0.389-11.599-0.074-14.028c-0.759-3.985-6.088-4.304-6.058-13.022c0.032-9.235,6.914-11.614,15.133-9.054
	c5.767,1.797,6.781,11.344,3.834,15.943C684.966,502.386,678.409,503.709,678.131,504.132z"/>
<path d="M282.994,266.002c-0.498,0.487,0.991,5.85,1.048,7.455c0.435,12.253-0.378,24.617-0.086,36.877
	c8.053,2.83,12.296,12.349,6.073,19.195c-7.238,7.961-21.901-2.846-14.681-13.685c1.869-2.806,5.067-3.595,5.63-6.357
	c0.592-2.908-0.477-13.561-2.417-15.548c-2.329-2.385-20.535-2.78-23.891-1.979c-1.467,0.351-1.704,7.938-8.227,8.977
	c-22.798,3.633-14.908-31.184,3.082-19.964c2.98,1.859,3.594,5.811,4.959,7.041c1.705,1.536,14.863,1.324,17.925,0.894
	c5.015-0.704,8.043-3.499,8.344-8.663c0.091-1.559-0.492-12.536-0.735-13.541c-0.093-0.386-4.289-3.112-5.673-5.55
	c-10.411-18.346,21.036-25.261,18.682-3.638C292.035,266.637,284.129,264.893,282.994,266.002z"/>
</svg>
