<?xml version="1.0" encoding="UTF-8"?>
<svg id="Layer_1" xmlns="http://www.w3.org/2000/svg" version="1.1" viewBox="0 0 112.6 131">
  <!-- Generator: Adobe Illustrator 29.0.1, SVG Export Plug-In . SVG Version: 2.1.0 Build 192)  -->
  <g id="tree">
    <path id="branch3" d="M21.6,68.9c.3,1,.6,1.9,1.2,2.1,4,1,28.8-.6,30.9-4,0-7.6.9-15.6,1.5-23.5,0,0,2.1,19.4,2.1,28.3s-1.9,18.2-1.9,18.2c-.7-5.8-1.6-11-2.6-12.1-2.4-2.6-26.1-5-29.8-4,0,0-1.6-.2-1.7-1.6s.5-3.4.5-3.4Z"/>
    <path id="branch1" d="M89.6,74.1c-6.3,1.8-23.6-.1-27.9,4.9-1.3,1.5-1.8,6.6-2,12.3,0,0-2-5-2-19.4s1.3-28.2,1.3-28.2c-.2,9.1-.2,19.4,2,22.9,1.7,2.7,8.5,3.8,11.9,4.1,2.3.2,15.3.5,16.2,0,.4-.3.7-.9,1-1.6,0,0,.8,1,.8,2.9s-1.3,2.1-1.3,2.1Z"/>
    <path id="branch2" d="M59,43.8c.1-5.4.3-10.4.2-13.4,0-2.3-1.4-5-1.1-6.9.1-.9.8-1.5,1.6-2.1,0,0-1.4-1.5-3.4-1.5s-3.7.7-3.7.7c1.2,1.3,2.2,2.8,2.5,5,.7,5.8.5,11.8.1,17.9,0,0,.8,13.3.1,28.3-.7,15,0,18.3,0,18.3.9,8.2,1.3,17.7.4,19-.3.4-1,.7-1.8,1,0,0,1.2.7,2.9.7s2.3-1.2,2.3-1.2c.4-3.1.2-11,.5-18.1,0,0-1.3-7.8-1.4-19.4,0-7,.7-28.2.7-28.2Z"/>
  </g>
  <g id="discs">
    <path id="disc4" d="M22.8,73.9c-.5.1-2.4,5.1-6.1,7.1-11.3,6.1-18.1-.5-16.5-12.5,1.4-10,15.7-9.7,20.4-2.5.4.7.7,1.9,1,2.9l1.2,5Z"/>
    <path id="disc3" d="M59.1,109.4c12.1,2,14,21.3-.4,21.6-12.5.3-16.6-12.5-7-20.1.6-.4,1.4-.7,2.2-1l5.2-.6Z"/>
    <path id="disc1" d="M52.6,20.5c-2.8-3-7-4.6-6.5-11.1,1-12.8,19.9-12.8,20.5,1.4.3,7.3-4.3,8.8-6.9,10.5l-7.1-.8Z"/>
    <path id="disc2" d="M90,69.2c1-2.6,2.2-7.4,9.8-8.2,21.5-2.3,12.6,28.8-3,20.8-2.6-1.4-6.3-7.5-7.2-7.7l.4-4.9Z"/>
  </g>
</svg>