<?xml version="1.0" encoding="iso-8859-1"?>
<!-- Generator: Adobe Illustrator 29.0.1, SVG Export Plug-In . SVG Version: 9.03 Build 54978)  -->
<svg version="1.1" id="Layer_1" xmlns="http://www.w3.org/2000/svg" xmlns:xlink="http://www.w3.org/1999/xlink" x="0px" y="0px"
	 viewBox="0 0 183.55 158.133" style="enable-background:new 0 0 183.55 158.133;" xml:space="preserve">
<path d="M80.939,7.882c4.274,2.722,58.251-3.269,67.323-0.865c3.724-0.709,4.458-5.93,12.026-6.057
	c15.843-0.267,11.903,20.232,0.84,20.787c-8.836,0.444-10.998-11.518-11.998-11.756c-12.966,0.842-27.08-2.178-39.145,3.248
	c-0.961,4.787-1.317,9.433-1.238,14.345c0.071,4.372,0.587,12.614,1.134,16.857c0.165,1.281,0.9,4.52,1.86,5.14
	c0.487,0.315,9.804,1.393,11.501,1.499c9.1,0.568,18.87-0.349,28.083-0.082c2.67,0.077,5.382,1.379,7.961,1.153
	c1.901-0.166,3.751-5.14,6.754-6.355c18.521-7.491,24.066,19.154,8.23,20.302c-8.683,0.629-9.742-7.063-14.982-11.063
	c-8.132,1.102-44.313-2.712-48.226,3.282c-2.341,3.585-2.105,16.094,2.327,18.617c1.068,0.608,7.068,2.161,7.825,1.97
	c1.654-0.417,1.989-8.159,9.304-9.642c16.57-3.36,19.225,19.684,3.504,20.546c-9.547,0.524-8.078-9.758-18.743-7.765
	c-3.22,0.602-3.303,3.773-3.542,6.449c-1.007,11.251-1.11,34.913,0.05,46.044c0.297,2.854,0.66,5.208,3.261,6.739
	c3.29,1.937,15.061,3.466,19.247,3.753c5.271,0.362,19.411,0.886,23.998,0.018c2.421-0.458,3.683-4.755,7.488-6.506
	c11.973-5.51,21.199,10.369,10.335,17.33c-8.385,5.373-14.527,0.542-16.99-7.878l-73.845,0.042
	c-3.266,0.616-3.103,7.562-11.068,7.931c-14.855,0.689-15.856-22.425-0.02-20.91c7.103,0.679,8.562,8.862,9.216,9.042
	c1.856,0.509,13.19,0.111,15.636-0.299c11.459-1.92,9.028-13.011,8.781-22.302c-0.255-9.585-0.698-23.652-2.096-32.904
	c-0.712-4.712-5.199-6.869-9.532-7.465c-2.553-0.352-18.761,0.411-20.756,1.068c-2.1,0.691-2.509,7.03-9.254,7.819
	c-15.893,1.86-15.735-21.517-1.04-20.655c7.991,0.469,7.416,8.364,12.351,9.464c3.67,0.818,22.566-0.129,25.548-1.775
	c3.384-1.868,4.873-19.721-1.286-21.488c-26.037-2.239-52.181-1.343-78.312-1.566C18.079,69.006-5.184,64.737,1.054,47.8
	c4.123-11.195,21.811-8.713,20.736,3.238c13.225,0.357,26.29-1.348,39.537-1.039c7.912,0.184,18.133,2.153,25.912,2.079
	c2.43-0.023,13.287-1.226,14.932-2.152c5.145-2.896,4.112-19.539,3.651-25.422c-1.453-18.528-9.554-12.596-24.382-13.511
	c-0.9,0.215-2.317,8.98-9.228,10.009C56.287,23.371,56.772-4.02,73.81,0.506C79.721,2.076,80.038,7.308,80.939,7.882z"/>
</svg>
