<?xml version="1.0" encoding="iso-8859-1"?>
<!-- Generator: Adobe Illustrator 29.0.1, SVG Export Plug-In . SVG Version: 9.03 Build 54978)  -->
<svg version="1.1" id="Layer_1" xmlns="http://www.w3.org/2000/svg" xmlns:xlink="http://www.w3.org/1999/xlink" x="0px" y="0px"
	 viewBox="0 0 128.486 168.967" style="enable-background:new 0 0 128.486 168.967;" xml:space="preserve">
<path d="M68.724,19.473c-1.267,1.133-5.45,1.836-5.728,2.991c-0.794,3.29-0.369,22.514,0.046,26.818
	c0.262,2.722,2.035,10.453,3.505,12.495c3.43,4.762,12.893,4.705,17.811,3.042c0.938-0.317,1.434-7.901,8.237-8.975
	c19.76-3.121,18.515,27.149-1.959,18.845c-4.185-1.697-4.034-4.508-6.028-5.972c-2.569-1.887-15.496-1.38-18.138,1.01
	c-3.819,3.455-3.031,28.154-0.343,32.47c4.268,6.851,21.914,3.571,28.402,3.507c3.348-0.033,8.301,2.5,11.498,0.577
	c3.62-2.177,1.848-8.477,12.508-7.535c23.355,2.065-0.234,39.964-11.557,11.057c-9.44,2.962-35.388-4.427-40.017,7.415
	c-1.135,2.904-1.725,25.797-0.976,28.917c0.336,1.402,7.814,0.75,8.953,9.243c2.526,18.826-19.304,15.403-20.842,5.857
	c-1.248-7.745,0.971-12.064,7.98-15.109c-0.198-7.007,2.033-28.2-3.069-32.81c-4.842-4.376-28.821-2.369-36.304-3.565
	c-2.79,7.115-8.855,13.062-16.625,8.492c-11.867-6.98-5.325-27.14,10.697-20.695c6.285,2.528,2.129,8.879,10.797,9.258
	c3.41,0.149,5.899-0.99,8.919-1.056c8.618-0.189,21.936,3.481,23.449-7.552c0.519-3.785,1.126-12.034,1.177-15.91
	c0.028-2.129-1.469-11.266-2.565-12.517c-1.241-1.417-12.814-2.519-14.86-1.813c-2.697,0.931-4.413,8.823-13.063,7.808
	c-15.862-1.861-12.816-28.078,6.425-20.488c6.575,2.594,5.324,8.773,6.019,9.471c0.661,0.664,15.658,1.909,16.498-4.424
	c1.28-9.653,0.418-22.099,0.415-32.079c0-1.619,1.08-3.977,0.881-4.866c-0.501-2.244-9.909-2.478-10.861-11.074
	C49.218,5.208,51.981,1.522,59.004,0.19C70.008-1.897,75.088,13.782,68.724,19.473z"/>
</svg>
