<?xml version="1.0" encoding="iso-8859-1"?>
<!-- Generator: Adobe Illustrator 29.0.1, SVG Export Plug-In . SVG Version: 9.03 Build 54978)  -->
<svg version="1.1" id="Layer_1" xmlns="http://www.w3.org/2000/svg" xmlns:xlink="http://www.w3.org/1999/xlink" x="0px" y="0px"
	 viewBox="0 0 136.575 136.378" style="enable-background:new 0 0 136.575 136.378;" xml:space="preserve">
<path id="disc1" d="M54.331,111.772c0.588,3.082,4.592,3.217,6.363,5.74c12.971,18.479-18.831,27.234-19.398,8.218
	c-0.298-9.993,6.126-8.925,9.783-12.715L54.331,111.772z"/>
<path id="disc2" d="M111.668,75.226c2.858,9.952,13.933,14.042,21.714,6.583c10.242-9.818-6.478-24.349-17.425-16.425
	c-2.397,1.735-3.181,6.656-4.289,6.921L111.668,75.226z"/>
<path id="disc3" d="M22.3,74.731c-1.189,0.818-1.162,4.408-5.265,6.733c-20.004,11.334-24.99-26.792-0.747-18.649
	c4.209,1.414,4.436,4.631,4.743,6.696L22.3,74.731z"/>
<path id="disc4" d="M54.497,23.421c0.167-0.263,3.866-1.316,5.405-3.095c4.9-5.665,2.057-17.898-5.305-19.81
	c-16.767-4.357-18.838,20.244-4.195,23.36L54.497,23.421z"/>
<path id="branch2" d="M54.543,55.526c0.281,5.493,0.644,9.821,1.038,10.996c0.48,1.428,1.614,2.376,2.78,3.22l33.435,2.565
	c5.567-0.979,14.894,1.186,19.871-0.002c0,0,0.663,0.06,0.663,1.342c0,1.283-0.663,1.579-0.663,1.579
	c-15.129,1.385-33.085-1.719-47.853,0.017c-3.271,0.385-6.322,2.232-7.708,5.292c-1.097,2.423-1.805,9.88-2.074,17.015
	c0,0-2.473-15.475-2.473-22.804S54.543,55.526,54.543,55.526z"/>
<path id="branch3" d="M21.031,69.511c0.103,0.689,0.214,1.249,0.486,1.573c1.396,1.664,24.942,0.364,26.831-1.308
	c1.316-1.164,1.874-5.75,2.069-11.637c0,0,2.772,1.949,2.772,15.793S52.413,97.55,52.413,97.55
	c-0.343-8.151-1.499-16.825-3.023-18.837c-0.771-1.017-1.942-1.448-3.06-1.94c-2.829-1.245-22.143-3.341-24.03-2.042
	c0,0-1.196,0.342-2.01-1.613C19.475,71.164,21.031,69.511,21.031,69.511z"/>
<path id="branch1" d="M54.331,111.772c-0.438-2.297-0.528-8.143-0.299-14.222l0.51-42.025c-0.635-12.436-0.848-30.839-0.046-32.105
	c0,0,0.439-0.873-2.145-0.873s-1.951,1.328-1.951,1.328c-0.38,2.58-0.233,8.794-0.077,15.855c0.135,6.102-0.228,12.066,0.093,18.409
	c0.321,6.343,0.54,10.66,0.672,13.263s1.325,26.147,1.325,26.147c0.306,7.267-0.034,14.118-1.333,15.465c0,0,0.755,0.483,2.109,0
	C54.543,112.532,54.331,111.772,54.331,111.772z"/>
</svg>
