<?xml version="1.0" encoding="iso-8859-1"?>
<!-- Generator: Adobe Illustrator 29.0.1, SVG Export Plug-In . SVG Version: 9.03 Build 54978)  -->
<svg version="1.1" id="Layer_1" xmlns="http://www.w3.org/2000/svg" xmlns:xlink="http://www.w3.org/1999/xlink" x="0px" y="0px"
	 viewBox="0 0 112.557 131.027" style="enable-background:new 0 0 112.557 131.027;" xml:space="preserve">
<path d="M89.022,70.781c1.873-1.174,0.957-8.738,10.767-9.773c21.533-2.271,12.578,28.822-2.983,20.807
	c-2.636-1.358-6.284-7.485-7.212-7.704c-6.256,1.763-23.57-0.133-27.888,4.859c-2.851,3.296-1.927,24.838-2.587,30.407
	c12.138,1.978,14.038,21.3-0.441,21.646c-12.537,0.299-16.575-12.485-7.004-20.084c1.123-0.892,3.428-1.066,4.044-1.957
	c1.549-2.241-0.689-28.537-3.043-31.031c-2.437-2.583-26.073-4.958-29.829-4.049c-0.465,0.113-2.411,5.069-6.141,7.068
	C5.388,87.032-1.414,80.453,0.249,68.507c1.397-10.031,15.699-9.662,20.36-2.491c0.886,1.363,1.077,4.699,2.227,4.975
	c3.973,0.953,28.837-0.646,30.863-4.03c-0.041-13.382,2.955-28.188,1.362-41.42c-0.895-7.436-9.671-6.916-8.944-16.089
	c1.016-12.813,19.945-12.83,20.496,1.353c0.378,9.741-7.962,9.091-8.485,12.666c-0.28,1.917,1.025,4.611,1.096,6.931
	c0.248,7.996-1.667,30.741,1.722,36.277c1.678,2.741,8.512,3.811,11.857,4.143C75.072,71.048,88.141,71.333,89.022,70.781z"/>
</svg>
