<?xml version="1.0" encoding="UTF-8"?>
<svg id="Layer_1" xmlns="http://www.w3.org/2000/svg" version="1.1" viewBox="0 0 130.7 198.5">
  <!-- Generator: Adobe Illustrator 29.0.1, SVG Export Plug-In . SVG Version: 2.1.0 Build 192)  -->
  <path id="branch5" d="M66.4,129.4c.5,3.2,1.3,5.9,2.5,7.9,3.8,6.2,8,2.9,13.7,3.2,4.7.3,22.7,2.6,25.5.6.8-.6,1.3-1.5,1.7-2.4,0,0,.5,3.7.6,5.4s-1.4,3.5-1.4,3.5c-.7-1-1.4-1.8-2.4-2-4.7-.9-33.8.6-37.1,2.9-.9.7-1.7,2.7-2.3,5.3,0,0-1.9-5.5-1.9-12.2s1-12.2,1-12.2Z"/>
  <path id="branch4" d="M61.1,151.8c-.3-2-.7-3.5-1.2-4-2.4-2.4-32.2-.9-38.2-2.3,0,0-.6-.7-1-2.3s.6-2.9.6-2.9c0,.1.1.2.2.3,1.3,1.6,21.2,1.2,24.9.9,4.1-.4,10.8-1.2,13.1-4.9.7-1.2,1.2-3.6,1.5-6.6,0,0,2.8,7.3,2.8,11.7s-2.7,10.2-2.7,10.2Z"/>
  <path id="branch3" d="M65,39.8c0,1.1.1,1.9.2,2.2.6,3.8,3.9,6,7.5,6.5,1.5.2,14.2.9,15,.7.3,0,.6-.3.8-.7,0,0,.8.9.8,2.6s-.8,1.4-.8,1.4c-3.8-.6-16,.6-19,3-.6.5-3,1.5-3.3,2.3,0,0-1.6-1.2-2-7.4s.8-10.7.8-10.7Z"/>
  <path id="branch2" d="M60.4,57c-.6-1.8-3.2-3.2-6.1-4.2-2-.7-12.5-2.1-13.2-1.3,0,0-.8-.2-.8-1.4s1.1-1.9,1.1-1.9c.1.2.2.3.3.3,2.4.6,16.5-1.3,17.8-3.1.3-.4.6-1.5.9-2.9,0,0,1.2,1.8,1.2,7.2s-1.2,7.2-1.2,7.2Z"/>
  <path id="branch1" d="M66.7,57.2c-.8,7.7,1.7,19.2-.7,24.8,1.6,10.7.3,45.7.4,47.3s1.3,19.9.8,24.4-1.7,17.3-1.1,20.3c.1.7.5,1.3.9,1.9,0,0-1.2,1.9-2.4,1.9s-3.6-2-3.6-2c.6-.5.9-1.1,1.1-1.7.5-2.7-1-16.4-1-22.3s0-18.1,0-21.9,0-23.3,0-28.9c.1-11-.8-35.8-.8-50.3s0-6.1.2-8.1c.6-10.5,1.2-17.1.7-19.4,0,0-.6-2.2,1.2-1.7,3-1.5,3,.9,3,.9-.1,0-.2,0-.2.1-.6.6-.4,12-.1,17.2l1.7,17.4Z"/>
  <path id="disc6" d="M67,175.9c2.7,3.1,9.5,4.5,8,14.1-2.2,14.1-30.9,9.9-21.8-7.8,1.6-3.2,5.8-4.5,7.8-6.4h6Z"/>
  <path id="disc5" d="M109.8,138.7c1.1-2.6,2.1-5.7,9.7-5.1,15.3,1.1,15.4,24.5-2.8,20.8-4.7-1-6.2-4.5-7.8-6.8l.8-8.9Z"/>
  <path id="disc4" d="M21.7,145.5c-2.4,13.5-22.3,9.1-21.7-3.4.4-8.9,11.3-13.2,18-8,2.7,2.1,2.3,4.6,3.3,6.2l.3,5.2Z"/>
  <path id="disc3" d="M88.5,48.6c1.4-2.1,2.7-8.1,11-7,5.4.7,9.4,5.1,9.7,10.4.9,16.1-19,14.3-20.6.5v-3.9Z"/>
  <path id="disc2" d="M41.1,51.6c-.7.7,1.6,6.6-5,9.5-18.3,8-23-23.5-3.6-20.4,6,1,8,6.2,8.9,7.6l-.3,3.3Z"/>
  <path id="disc1" d="M61.1,23.2c-.2-.8-8.9-3.1-9.1-12.2-.5-19.1,30.6-11.4,20.6,7.6-2.5,4.7-6.2,3.6-7.3,3.9l-4.2.7Z"/>
</svg>